<?xml version="1.0" encoding="UTF-8" standalone="no"?>
<!DOCTYPE svg PUBLIC "-//W3C//DTD SVG 1.1//EN" "http://www.w3.org/Graphics/SVG/1.1/DTD/svg11.dtd">
<svg xmlns="http://www.w3.org/2000/svg" version="1.1" viewBox="0 0 680 367" width="680.0pt" height="367.0pt">
<path d="M 0.00 0.00 L 680.00 0.00 L 680.00 367.00 L 0.00 367.00 L 0.00 0.00 Z" fill="#ffffff" />
<path d="M 401.11 7.04 C 403.32 6.77 406.82 6.55 408.09 8.83 C 411.01 13.34 410.69 20.05 411.71 25.26 C 413.32 33.80 413.06 42.41 414.07 51.01 C 414.88 58.06 416.44 64.98 417.16 72.05 C 417.98 79.99 420.91 87.17 422.23 95.00 C 423.11 100.43 425.12 105.53 426.18 110.92 C 427.11 115.65 429.52 119.45 431.02 123.96 C 432.41 128.21 434.12 132.35 435.64 136.56 C 436.54 139.15 438.46 141.00 440.22 143.03 C 441.78 138.24 443.61 133.66 444.71 128.73 C 445.77 123.85 447.84 119.41 449.91 114.83 C 451.56 110.79 456.33 109.03 460.09 107.58 C 463.88 114.26 467.26 121.14 471.19 127.73 C 474.63 133.70 477.03 139.69 481.18 145.02 C 481.90 137.38 482.40 129.80 484.02 122.28 C 486.07 122.86 487.99 123.00 489.53 124.64 C 494.00 129.57 496.91 135.17 500.30 140.79 C 503.47 145.84 506.67 150.90 510.57 155.43 C 513.45 158.63 516.54 161.62 519.29 164.95 C 512.51 159.87 505.47 155.70 499.20 149.89 C 496.25 147.19 495.94 143.49 493.42 140.54 C 491.65 138.43 489.63 136.52 487.65 134.60 C 488.00 139.44 488.75 144.22 489.43 149.02 C 489.89 152.46 490.17 156.15 488.59 159.37 C 487.15 161.79 484.77 163.02 482.45 164.42 C 477.87 157.54 474.19 150.15 469.92 143.08 C 465.62 136.65 463.55 129.53 458.49 123.70 C 456.26 130.28 454.70 136.75 453.58 143.60 C 451.86 149.56 449.74 155.81 446.20 160.96 C 439.90 157.24 433.37 154.91 428.72 149.34 C 425.52 145.35 423.33 140.32 421.29 135.66 C 418.29 129.35 416.23 122.60 414.05 115.98 C 412.59 109.33 409.61 103.25 408.52 96.53 C 407.57 90.88 405.10 85.65 404.14 80.03 C 402.90 69.02 403.25 58.36 403.63 47.34 C 400.03 53.49 398.78 60.35 395.79 66.77 C 393.49 73.80 391.11 80.79 388.82 87.83 C 386.91 92.20 385.52 96.65 384.10 101.19 C 381.99 106.35 381.49 111.24 377.23 115.21 C 374.76 112.74 372.44 110.20 370.31 107.42 C 368.99 108.45 367.76 109.46 366.95 110.95 C 362.82 118.01 359.51 125.55 355.84 132.85 C 350.35 144.11 348.31 157.05 340.83 166.72 C 336.69 162.76 332.49 159.36 327.59 156.35 C 323.87 154.11 322.37 150.20 321.88 146.06 C 320.95 137.31 319.99 128.58 319.66 119.78 C 318.77 110.44 319.22 101.09 318.04 91.76 C 312.31 103.29 306.31 114.89 301.89 127.00 C 297.23 136.97 293.94 147.07 286.26 155.33 C 282.73 158.25 276.72 160.14 272.45 157.75 C 267.38 155.58 265.49 150.45 262.23 146.20 C 256.68 148.85 252.98 153.57 249.63 158.57 C 246.70 163.89 244.50 169.55 241.24 174.72 C 229.29 170.85 218.25 172.57 206.04 173.45 C 199.69 174.15 193.30 174.16 186.94 174.80 C 177.24 175.59 167.91 177.70 158.16 178.10 C 162.22 173.76 165.90 169.30 170.62 165.63 C 189.86 149.31 214.26 140.63 236.32 128.31 C 245.95 122.60 256.26 115.96 263.49 107.23 C 266.61 105.70 269.34 103.70 273.00 104.88 C 277.94 106.23 279.94 109.88 282.86 113.65 C 286.30 107.71 288.93 101.35 292.38 95.41 C 297.99 84.97 303.15 74.27 309.01 63.97 C 312.52 57.96 316.56 51.88 323.47 49.52 C 326.15 48.56 328.12 50.39 329.76 52.26 C 332.42 55.82 334.57 60.06 335.28 64.48 C 337.35 77.92 338.14 91.40 338.91 104.96 C 339.11 111.61 339.03 118.21 339.95 124.82 C 346.61 114.57 351.57 103.22 357.66 92.62 C 367.61 73.03 379.00 53.56 387.26 33.21 C 390.73 26.44 392.55 19.24 395.37 12.22 C 396.51 9.98 398.72 7.82 401.11 7.04 Z" fill="#f9a530" />
<path d="M 42.98 202.81 C 51.99 201.73 60.14 204.32 68.35 207.68 C 71.49 209.44 74.63 211.48 76.16 214.87 C 78.91 219.74 77.95 225.79 78.05 231.23 C 72.86 231.24 67.66 231.24 62.47 231.23 C 62.24 228.56 62.68 225.03 61.34 222.65 C 58.32 219.04 53.29 219.01 48.98 218.81 C 44.97 218.84 40.41 218.68 36.97 221.03 C 34.44 222.69 31.90 224.56 29.91 226.85 C 19.86 238.58 22.30 259.13 35.89 267.16 C 40.82 270.64 46.28 270.13 52.03 269.92 C 55.63 269.73 59.46 268.66 61.76 265.68 C 62.53 263.09 62.33 260.14 62.44 257.45 C 67.64 257.47 72.84 257.47 78.04 257.46 C 77.94 264.07 79.14 270.38 74.97 276.06 C 70.57 281.00 64.88 283.28 58.51 284.57 C 48.58 287.48 38.23 286.20 28.83 282.16 C 22.70 278.74 17.14 274.63 13.26 268.67 C 9.84 263.11 6.86 257.44 6.60 250.78 C 6.23 244.52 6.09 237.87 7.61 231.74 C 9.79 225.56 13.07 219.37 17.81 214.76 C 24.27 207.93 33.77 203.98 42.98 202.81 Z" fill="#f9a530" />
<path d="M 116.00 203.98 C 124.33 204.02 132.66 204.09 141.00 203.97 C 144.49 204.03 148.20 203.74 151.24 205.78 C 153.28 207.10 153.89 209.66 154.09 211.93 C 154.37 216.45 154.14 221.02 154.16 225.55 C 150.12 225.55 146.09 225.55 142.05 225.56 C 142.01 223.36 141.99 221.16 141.95 218.96 C 134.92 218.90 127.88 218.91 120.85 218.94 C 120.81 225.16 120.80 231.38 120.84 237.59 C 129.48 237.59 138.11 237.58 146.75 237.60 C 146.75 242.16 146.75 246.71 146.75 251.26 C 138.12 251.28 129.49 251.26 120.86 251.27 C 120.80 257.50 120.79 263.74 120.85 269.97 C 127.92 270.01 134.99 270.05 142.05 269.93 C 142.06 267.64 142.06 265.35 142.06 263.07 C 146.09 263.08 150.13 263.08 154.16 263.09 C 154.17 267.07 154.29 271.05 154.19 275.03 C 154.14 277.70 153.69 280.85 151.90 282.96 C 149.14 284.66 145.13 284.57 142.00 284.61 C 132.98 284.53 123.97 284.60 114.95 284.60 C 112.32 284.50 108.53 284.47 106.50 282.58 C 104.28 279.94 104.31 276.26 104.25 273.00 C 104.32 253.66 104.30 234.32 104.26 214.98 C 104.35 212.29 104.32 208.54 106.53 206.60 C 109.14 204.07 112.59 204.06 116.00 203.98 Z" fill="#f9a530" />
<path d="M 180.72 204.04 C 185.44 204.04 190.16 204.04 194.88 203.98 C 203.75 215.90 211.64 228.56 220.32 240.61 C 223.55 245.25 226.22 250.15 229.81 254.53 C 229.50 241.69 229.76 228.84 229.62 216.00 C 229.71 213.11 229.55 209.53 230.91 206.91 C 234.56 203.19 241.21 204.09 245.95 204.03 C 245.98 230.89 245.92 257.74 245.98 284.59 C 241.12 284.58 236.26 284.56 231.41 284.61 C 223.33 273.31 215.71 261.72 207.76 250.34 C 204.23 244.93 200.29 239.89 197.11 234.26 C 197.63 243.48 197.31 252.76 197.39 262.00 C 197.32 267.01 197.61 272.06 197.28 277.07 C 197.00 279.73 196.34 282.52 193.56 283.57 C 189.67 285.05 184.83 284.52 180.73 284.62 C 180.72 257.76 180.71 230.90 180.72 204.04 Z" fill="#f9a530" />
<path d="M 280.00 203.98 C 297.00 204.11 314.06 203.97 331.06 204.04 C 334.17 204.01 336.46 205.51 339.09 206.92 C 339.54 213.13 339.47 219.33 339.44 225.55 C 334.62 225.55 329.80 225.56 324.99 225.57 C 324.95 223.37 324.95 221.17 324.91 218.97 C 320.72 218.92 316.52 218.92 312.33 218.93 C 312.33 240.81 312.32 262.70 312.34 284.59 C 306.80 284.58 301.27 284.58 295.74 284.61 C 295.68 262.72 295.73 240.83 295.72 218.94 C 291.72 218.92 287.72 218.92 283.73 218.93 C 283.68 221.14 283.67 223.34 283.63 225.55 C 278.58 225.54 273.54 225.55 268.49 225.56 C 268.65 220.08 267.98 214.32 268.97 208.92 C 270.25 204.29 276.03 203.91 280.00 203.98 Z" fill="#f9a530" />
<path d="M 362.44 204.03 C 371.63 204.05 380.82 203.99 390.01 204.03 C 397.20 204.24 405.44 206.19 410.65 211.49 C 418.78 220.63 419.33 235.01 411.68 244.63 C 409.60 246.66 407.19 248.38 404.88 250.13 C 405.74 250.87 406.59 251.62 407.44 252.38 C 408.62 255.46 410.14 258.36 411.71 261.25 C 413.12 263.79 414.07 266.94 415.87 269.22 C 417.73 270.15 420.24 269.97 422.27 270.27 C 422.27 275.05 422.27 279.83 422.27 284.60 C 416.22 284.72 410.35 284.75 404.50 282.99 C 399.22 274.13 395.02 264.66 390.04 255.64 C 386.39 255.33 382.73 255.24 379.07 255.23 C 378.84 265.01 379.12 274.80 379.03 284.58 C 373.49 284.57 367.96 284.59 362.42 284.60 C 362.42 257.74 362.42 230.89 362.44 204.03 Z" fill="#f9a530" />
<path d="M 464.64 204.25 C 470.03 203.68 475.55 204.16 480.97 204.05 C 486.07 215.68 489.41 227.93 494.30 239.63 C 499.21 254.75 505.37 269.45 510.11 284.62 C 504.02 284.65 498.19 284.94 492.34 282.88 C 489.94 276.97 487.40 271.21 485.91 264.98 C 477.25 264.94 468.59 265.00 459.93 264.94 C 458.32 271.22 456.03 277.01 453.47 282.95 C 447.46 285.01 441.48 284.66 435.25 284.56 C 436.69 279.76 439.07 275.35 440.54 270.56 C 441.74 266.58 443.46 262.79 444.66 258.80 C 446.04 254.02 448.44 249.66 449.80 244.87 C 451.05 240.64 453.10 236.75 454.43 232.56 C 457.58 223.02 461.27 213.70 464.64 204.25 Z" fill="#f9a530" />
<path d="M 531.97 204.06 C 535.44 204.07 539.10 203.78 542.52 204.43 C 545.49 205.14 548.36 206.93 548.76 210.22 C 549.34 214.75 548.91 219.44 548.97 224.00 C 549.03 239.34 548.85 254.69 549.08 270.03 C 555.64 270.01 562.20 270.04 568.77 269.95 C 568.80 267.65 568.82 265.36 568.84 263.06 C 573.90 263.06 578.97 263.07 584.03 263.09 C 583.97 268.02 584.35 273.04 583.81 277.94 C 583.48 279.86 582.57 282.71 580.61 283.54 C 577.70 284.69 574.08 284.58 571.00 284.61 C 562.00 284.54 553.00 284.57 544.00 284.62 C 540.73 284.57 537.05 284.60 534.22 282.73 C 532.16 280.86 532.00 277.59 531.94 275.01 C 532.00 251.37 531.95 227.72 531.97 204.06 Z" fill="#f9a530" />
<path d="M 626.79 204.31 C 632.08 203.67 637.55 204.21 642.87 203.99 C 643.88 206.45 644.80 208.92 645.55 211.47 C 646.80 215.73 648.95 219.59 650.20 223.84 C 653.41 233.78 657.37 243.41 660.74 253.27 C 665.07 263.53 667.84 274.45 672.42 284.60 C 666.45 284.66 660.62 284.86 654.78 283.34 C 650.85 277.65 650.15 271.06 647.12 264.97 C 638.82 264.97 630.51 264.97 622.21 264.97 C 620.45 268.88 619.05 272.72 617.85 276.84 C 616.89 279.65 615.20 283.35 611.92 283.91 C 607.12 285.00 601.87 284.47 596.96 284.62 C 600.63 276.14 603.26 267.18 606.49 258.52 C 609.99 250.13 612.57 241.34 615.86 232.87 C 617.88 228.33 619.11 223.55 620.96 218.95 C 622.97 214.06 623.77 208.74 626.79 204.31 Z" fill="#f9a530" />
<path d="M 379.03 218.92 C 383.69 218.96 388.41 218.65 393.04 219.13 C 396.19 219.37 398.75 222.49 399.53 225.36 C 400.10 228.04 400.07 230.94 399.60 233.64 C 399.24 237.09 395.66 239.45 392.70 240.58 C 388.29 241.44 383.54 240.95 379.05 241.04 C 378.90 233.66 378.94 226.29 379.03 218.92 Z" fill="#ffffff" />
<path d="M 472.72 224.77 C 474.10 228.92 475.53 233.05 476.71 237.27 C 477.98 241.95 480.14 246.17 481.67 250.81 C 475.88 250.91 470.09 250.87 464.30 250.84 C 466.53 245.34 467.69 239.53 470.10 234.11 C 471.43 231.12 472.14 227.98 472.72 224.77 Z" fill="#ffffff" />
<path d="M 634.75 224.34 C 636.33 229.21 636.99 234.17 639.10 238.88 C 640.80 242.75 641.92 246.74 642.84 250.86 C 637.39 250.87 631.95 250.88 626.50 250.85 C 627.22 247.04 628.24 243.40 629.83 239.86 C 632.10 234.84 632.99 229.54 634.75 224.34 Z" fill="#ffffff" />
<path d="M 517.71 306.16 C 519.98 307.24 521.04 308.61 522.41 310.62 C 523.22 309.42 523.99 308.19 524.77 306.97 C 525.57 306.94 526.37 306.91 527.17 306.87 C 527.15 308.02 527.14 309.17 527.13 310.32 C 525.51 311.01 523.79 312.03 522.03 312.21 C 520.59 311.78 519.21 311.04 517.96 310.22 C 517.85 308.87 517.77 307.52 517.71 306.16 Z" fill="#f9a530" />
<path d="M 289.46 317.41 C 293.09 316.16 295.99 318.24 299.13 319.73 C 299.03 321.21 298.94 322.69 298.84 324.17 C 296.25 323.37 293.06 321.71 290.33 322.19 C 287.57 323.06 287.58 325.22 286.69 327.55 C 288.20 329.14 289.68 331.19 291.60 332.28 C 294.49 334.04 297.34 334.86 299.27 337.87 C 302.97 343.18 300.62 351.22 294.75 353.83 C 290.29 356.22 285.26 354.39 281.75 351.24 C 280.81 350.06 281.08 347.80 280.73 346.38 C 283.99 347.17 286.85 349.01 290.07 349.83 C 294.09 350.23 296.74 346.13 295.48 342.52 C 294.47 339.22 291.60 338.57 288.91 337.01 C 284.81 335.04 281.67 330.68 282.00 326.01 C 282.49 321.80 285.39 318.54 289.46 317.41 Z" fill="#f9a530" />
<path d="M 330.07 317.22 C 333.15 317.10 336.48 318.98 339.27 320.16 C 339.25 322.05 339.24 323.93 339.21 325.82 C 335.61 323.67 332.40 321.49 327.97 322.89 C 325.93 323.31 324.86 325.25 323.86 326.88 C 321.52 330.68 321.61 335.78 322.04 340.07 C 322.53 344.52 326.01 349.61 330.93 349.51 C 333.86 349.24 336.71 347.14 339.28 345.79 C 339.37 347.59 339.42 349.38 339.47 351.18 C 336.41 352.83 333.61 354.83 329.99 354.81 C 324.34 354.49 319.43 350.47 318.01 344.99 C 316.75 339.71 316.88 334.03 317.75 328.70 C 318.27 325.26 320.38 322.91 322.20 320.07 C 324.69 319.01 327.37 317.55 330.07 317.22 Z" fill="#f9a530" />
<path d="M 148.94 318.06 C 154.97 317.54 163.62 316.99 168.13 321.89 C 171.95 325.23 171.95 330.31 172.19 335.00 C 172.11 340.91 171.96 346.89 166.90 350.85 C 161.33 355.19 155.32 354.06 148.73 354.13 C 148.12 345.81 148.56 337.36 148.40 329.00 C 148.45 325.42 148.10 321.55 148.94 318.06 Z" fill="#f9a530" />
<path d="M 191.26 318.11 C 196.66 317.46 202.21 317.98 207.65 317.80 C 207.66 319.36 207.65 320.90 207.51 322.45 C 203.46 323.07 199.22 322.77 195.13 322.78 C 195.13 326.21 195.14 329.63 195.15 333.05 C 198.87 333.05 202.59 333.06 206.31 333.10 C 206.35 334.49 206.42 335.87 206.49 337.26 C 202.71 337.31 198.94 337.33 195.16 337.36 C 195.14 341.30 195.14 345.25 195.14 349.19 C 199.34 349.19 203.54 349.18 207.73 349.30 C 207.84 350.89 207.88 352.47 207.88 354.06 C 202.15 354.20 196.42 354.18 190.68 354.13 C 189.55 348.00 190.12 342.17 190.05 336.00 C 190.08 331.66 189.94 327.31 189.99 322.97 C 190.15 321.13 189.76 319.48 191.26 318.11 Z" fill="#f9a530" />
<path d="M 248.92 318.05 C 254.50 317.52 260.19 317.91 265.79 317.93 C 265.91 319.41 266.02 320.90 266.14 322.38 C 261.83 322.83 257.51 322.85 253.18 322.82 C 253.18 326.22 253.18 329.63 253.19 333.04 C 256.72 333.05 260.25 333.06 263.78 333.12 C 263.87 334.48 263.97 335.84 264.09 337.20 C 260.47 337.30 256.84 337.34 253.21 337.38 C 253.18 341.31 253.18 345.25 253.18 349.19 C 257.39 349.19 261.60 349.18 265.80 349.28 C 265.91 350.88 265.99 352.49 266.05 354.09 C 260.27 354.19 254.48 354.18 248.69 354.13 C 248.02 345.82 248.52 337.36 248.35 329.00 C 248.40 325.43 248.02 321.52 248.92 318.05 Z" fill="#f9a530" />
<path d="M 364.30 318.01 C 366.12 317.55 367.96 317.55 369.79 317.99 C 370.80 319.88 371.22 322.20 371.79 324.26 C 372.91 328.95 375.11 333.22 376.18 337.93 C 377.41 343.50 379.83 348.60 381.36 354.09 C 379.66 354.19 377.95 354.26 376.24 354.31 C 375.04 351.21 373.89 348.10 372.74 344.98 C 368.85 344.98 364.95 344.98 361.06 344.97 C 359.97 348.05 358.96 351.16 358.01 354.30 C 356.49 354.28 354.96 354.26 353.43 354.23 C 354.11 347.98 357.22 342.74 358.60 336.70 C 359.40 333.33 360.58 330.09 361.61 326.79 C 362.52 323.92 362.97 320.71 364.30 318.01 Z" fill="#f9a530" />
<path d="M 397.44 318.32 C 398.99 317.91 400.61 317.78 402.18 317.51 C 402.44 328.00 402.22 338.49 402.33 348.98 C 406.18 348.97 410.04 349.00 413.89 349.19 C 413.78 350.72 413.69 352.23 413.46 353.75 C 408.35 354.65 402.94 354.04 397.77 354.07 C 396.76 347.32 397.29 340.96 397.20 334.00 C 397.31 328.80 396.86 323.49 397.44 318.32 Z" fill="#f9a530" />
<path d="M 437.48 318.32 C 438.96 317.33 441.27 317.61 442.93 317.91 C 444.97 323.31 446.37 328.97 448.47 334.40 C 449.83 341.24 452.91 347.43 454.44 354.20 C 452.77 354.25 451.10 354.27 449.43 354.25 C 448.33 351.13 447.21 348.02 446.01 344.94 C 442.12 344.96 438.24 344.97 434.36 344.97 C 433.28 348.09 432.24 351.22 431.19 354.36 C 429.64 354.32 428.09 354.25 426.53 354.15 C 427.17 350.81 428.13 347.64 429.41 344.48 C 431.33 339.77 432.04 334.73 433.88 329.98 C 435.38 326.21 435.61 321.89 437.48 318.32 Z" fill="#f9a530" />
<path d="M 472.05 318.11 C 476.78 317.43 482.17 317.52 486.68 319.24 C 489.77 320.27 491.56 323.19 493.07 325.88 C 495.44 330.19 495.32 335.24 494.86 340.00 C 494.34 344.20 491.90 347.29 489.83 350.84 C 483.94 354.30 477.92 354.96 471.24 353.73 C 470.39 350.32 470.67 346.50 470.66 343.00 C 470.77 335.98 470.60 328.97 470.67 321.95 C 470.85 320.81 470.47 318.33 472.05 318.11 Z" fill="#f9a530" />
<path d="M 519.44 318.14 C 521.92 317.48 525.20 316.83 526.04 320.04 C 527.98 327.33 530.46 334.39 532.34 341.69 C 533.70 345.86 535.43 349.86 536.41 354.16 C 534.73 354.22 533.05 354.27 531.37 354.27 C 530.23 351.16 529.09 348.05 527.92 344.95 C 524.03 344.97 520.14 344.97 516.25 344.97 C 515.17 348.07 514.14 351.20 513.13 354.33 C 511.59 354.31 510.04 354.26 508.49 354.18 C 509.09 350.73 510.02 347.56 511.35 344.32 C 513.28 339.62 514.02 334.60 515.81 329.83 C 517.30 326.03 517.62 321.77 519.44 318.14 Z" fill="#f9a530" />
<path d="M 152.91 322.69 C 155.85 322.81 158.96 322.71 161.84 323.36 C 165.89 325.45 167.10 329.69 167.06 333.99 C 167.00 337.97 167.56 344.19 163.89 346.84 C 160.79 349.65 156.80 348.98 152.89 349.31 C 152.88 340.44 152.88 331.56 152.91 322.69 Z" fill="#ffffff" />
<path d="M 475.75 322.68 C 478.81 322.88 482.37 322.61 485.25 323.75 C 490.89 329.39 491.47 339.55 486.93 346.02 C 484.27 349.43 479.62 349.03 475.76 349.34 C 475.75 340.45 475.74 331.56 475.75 322.68 Z" fill="#ffffff" />
<path d="M 367.23 324.92 C 368.33 330.09 370.06 335.01 371.81 339.98 C 368.56 340.01 365.31 340.01 362.06 339.96 C 363.57 334.88 365.30 329.86 367.23 324.92 Z" fill="#ffffff" />
<path d="M 440.41 324.91 C 441.57 330.05 443.47 334.92 445.02 339.94 C 441.77 340.02 438.51 340.03 435.25 340.01 C 436.57 335.84 438.07 331.75 439.51 327.63 C 439.81 326.72 440.11 325.81 440.41 324.91 Z" fill="#ffffff" />
<path d="M 522.36 324.97 C 523.43 330.19 525.32 335.11 527.28 340.05 C 523.91 340.04 520.54 340.02 517.18 339.95 C 518.47 335.78 519.95 331.67 521.44 327.56 C 521.75 326.70 522.06 325.83 522.36 324.97 Z" fill="#ffffff" />
<path d="M 6.93 333.96 C 45.74 333.94 84.55 333.95 123.36 333.95 C 123.36 335.15 123.37 336.34 123.38 337.54 C 84.57 337.51 45.76 337.54 6.95 337.53 C 6.94 336.34 6.93 335.15 6.93 333.96 Z" fill="#f9a530" />
<path d="M 554.56 334.08 C 557.70 333.98 560.85 333.94 564.00 333.94 C 599.86 333.99 635.71 333.90 671.57 333.98 C 671.55 335.15 671.53 336.33 671.49 337.50 C 633.08 337.51 594.54 337.61 556.14 337.45 C 555.56 336.35 555.06 335.22 554.56 334.08 Z" fill="#f9a530" />
</svg>