<?xml version="1.0" encoding="UTF-8"?>
<svg id="Layer_1" data-name="Layer 1" xmlns="http://www.w3.org/2000/svg" viewBox="0 0 128 128">
  <defs>
    <style>
      .cls-1 {
        fill: #e16389;
        stroke-width: 3.54px;
      }

      .cls-1, .cls-2, .cls-3 {
        stroke: #eaa0b3;
        stroke-linecap: round;
        stroke-miterlimit: 10;
      }

      .cls-2 {
        stroke-width: 2.73px;
      }

      .cls-2, .cls-3 {
        fill: none;
      }

      .cls-3 {
        stroke-width: 3.42px;
      }

      .cls-4 {
        fill: #eaa0b3;
      }
    </style>
  </defs>
  <path class="cls-4" d="m51.32,12.42c1.65,0,3.46,1.46,6.8,4.26,3.62,3.04,6.77,6.7,9.38,10.89l.57.91.99.42c5.81,2.48,11.48,5.4,16.86,8.69,4.28,2.61,8.46,5.51,12.41,8.6l1.02.79,1.29-.08c.69-.04,1.4-.06,2.09-.06,2.56,0,5.11.28,7.6.83,4.7,1.04,7.01,1.62,8.22,3.18,1.2,1.55,2.02,4.83-.87,11.65-1.34,3.17-3.58,6.03-6.47,8.26l-1.37,1.06.05,1.73c.11,4.29-.54,8.48-1.94,12.46-2.29,6.5-6.67,12.52-11.74,16.11-4.23,3-9.56,4.52-15.83,4.52-5.94,0-15.86-1.4-29.41-8.05-9.11-4.47-30.45-14.94-31.55-34.56-.96-17.17,14.19-29.25,17.23-31.49l.89-.66.34-1.06c1.29-4.07,3.17-7.84,5.6-11.2,2.75-3.81,5.12-7.1,7.69-7.22.06,0,.11,0,.16,0m0-3.42c-.11,0-.22,0-.33,0-4.21.2-7.05,4.13-10.3,8.64-1.94,2.68-4.35,6.7-6.08,12.16-2.27,1.67-19.71,14.94-18.62,34.43,1.21,21.61,24.19,32.89,33.45,37.43,3.44,1.69,17.11,8.4,30.92,8.4,6.22,0,12.46-1.36,17.81-5.15,4.87-3.45,10.16-9.74,12.98-17.76,1.95-5.55,2.21-10.47,2.13-13.68,2-1.54,5.41-4.63,7.52-9.63.91-2.15,4.28-10.09.43-15.07-2.02-2.62-5.19-3.32-10.18-4.43-3.19-.71-6.04-.91-8.34-.91-.84,0-1.61.03-2.29.07-3.67-2.87-7.91-5.88-12.74-8.82-6.18-3.78-12.06-6.68-17.3-8.91-3.54-5.68-7.37-9.42-10.08-11.7-3.79-3.18-6.09-5.06-9-5.06h0Z"/>
  <ellipse class="cls-4" cx="82.83" cy="86.91" rx="4.78" ry="3.88" transform="translate(-30.29 127.12) rotate(-65.95)"/>
  <ellipse class="cls-4" cx="39.36" cy="63.79" rx="4.78" ry="3.88" transform="translate(-34.93 73.74) rotate(-65.95)"/>
  <ellipse class="cls-4" cx="56.8" cy="82.07" rx="4.48" ry="5.75" transform="translate(-41.99 96.26) rotate(-63.49)"/>
  <path class="cls-3" d="m10.44,40.69c3.04,1.21,6.5,2.8,10.15,4.92,3.25,1.89,6.05,3.83,8.41,5.66"/>
  <path class="cls-3" d="m7.79,52.37c2.53.71,5.25,1.56,8.1,2.62,2.83,1.04,5.44,2.15,7.81,3.25"/>
  <path class="cls-3" d="m4.96,65.61c2.39-.27,5.47-.4,9.01,0,3.89.43,7.13,1.37,9.55,2.25"/>
  <path class="cls-2" d="m97.67,90.84c2.96,1.19,6.38,2.8,10,4.98,3.4,2.05,6.26,4.17,8.59,6.12"/>
  <path class="cls-2" d="m105.03,108.64c-1.39-1.5-2.96-3.06-4.74-4.65-2.53-2.25-4.99-4.11-7.26-5.65"/>
  <path class="cls-2" d="m95.76,119c-.83-2.24-1.98-4.81-3.58-7.53-2.38-4.05-5.01-7.16-7.24-9.42"/>
  <path class="cls-3" d="m111.38,78.31c.16-1.95.18-4.28-.14-6.88-.16-1.34-.4-2.58-.66-3.7"/>
  <path class="cls-1" d="m60.23,27.78c4.37-6.48,11.34-8.88,16-6.71,4.73,2.2,5.58,8.41,5.81,10.04.91,6.66-1.98,16.42-8.8,17.38-4.18.59-8.74-2.28-11.82-6.68"/>
  <path class="cls-1" d="m50.36,27.4c-3.89-5.32-9.73-7.39-13.7-5.63-3.76,1.66-4.65,6.22-4.91,7.52-1.23,6.29,1.96,15.14,8.38,16.37,4.78.92,8.92-2.84,9.72-3.6"/>
  <path class="cls-1" d="m62.58,30.59c1.75-.92,3.87-.72,5.32.49,1.68,1.4,2.26,3.99.98,5.86-1.06,1.55-3.14,2.23-5.1,1.63"/>
  <path class="cls-1" d="m46.92,30.78c-2.36-.06-4.33,1.14-4.88,2.86-.06.18-.49,1.62.36,2.94.87,1.34,2.71,2,4.58,1.55"/>
  <ellipse class="cls-1" cx="55.2" cy="35.43" rx="8.23" ry="8.4" transform="translate(-.04 70.8) rotate(-65.32)"/>
</svg>